<svg xmlns="http://www.w3.org/2000/svg" viewBox="0 0 522.5 175.79"><defs><style>.cls-1,.cls-2{fill:#fff;}.cls-1,.cls-3{fill-rule:evenodd;}.cls-3,.cls-4{fill:#45a9e0;}</style></defs><title>Ресурс 3</title><g id="Слой_2" data-name="Слой 2"><g id="Logo_White" data-name="Logo White"><path class="cls-1" d="M91.49,175V161.93h0V129.59H110a13.86,13.86,0,1,1,0,27.72h-9.24v18.48H91.49V175Zm9.24-36.17v9.24H110a4.62,4.62,0,1,0,0-9.24Z"/><polygon class="cls-1" points="54.54 129.59 45.3 129.59 54.54 152.69 45.3 175.79 54.54 175.79 63.63 153.04 72.74 175.79 81.98 175.79 72.74 152.69 81.98 129.59 72.74 129.59 63.63 152.34 54.54 129.59"/><path class="cls-1" d="M151.54,129.59a23.1,23.1,0,1,1-23.1,23.1,23.1,23.1,0,0,1,23.1-23.1Zm0,9.24a13.86,13.86,0,1,0,13.86,13.86A13.86,13.86,0,0,0,151.54,138.83Z"/><path class="cls-1" d="M476.31,129.59h9.24l4.62,11.55,4.62-11.55H504l18.48,46.19h-9.24l-13.86-34.64-4.62,11.55-4.62,11.55-4.62-11.55-4.62-11.55-13.85,34.64h-9.24l18.48-46.19Zm-46.2,9.24h9.24a4.62,4.62,0,0,1,0,9.24h-9.24v-9.24Zm6.47,18.48L444,175.79h9.24L445.29,156a13.86,13.86,0,0,0-5.93-26.39H420.88v32.34h0v13.86h9.23V157.31Zm-47.08-18.48a13.86,13.86,0,1,1-13.86,13.86,13.85,13.85,0,0,1,13.86-13.86Zm0-9.24a23.1,23.1,0,1,0,23.1,23.1,23.1,23.1,0,0,0-23.1-23.1Zm-60.05,0h27.72v9.24H338.7v9.24h18.48v9.24H338.7v18.48h-9.24V129.59Zm-27.72,0h18.48v9.24H311v37h-9.24v-37H292.5v-9.24ZM269.4,141.14l13.86,34.64h9.24L274,129.59h-9.24l-14.78,37H227.83v-37h-9.24v46.19h37m-64.67-37h9.24a4.62,4.62,0,1,1,0,9.24h-9.24v-9.24ZM181.64,175v.79h9.24V157.31h9.24a13.86,13.86,0,1,0,0-27.72H181.64v32.34h0Z"/><rect class="cls-2" x="256.14" y="153.65" width="26.5" height="6.44"/><path class="cls-3" d="M270,72"/><path class="cls-1" d="M179.6,74.67c0,17.67,14.07,32,31.41,32h59.85l-3.08-21.33s-2.69.38-4.23.51c-1.92.17-4,.27-6.25.34L253,86.1c-9.6-.22-32.74-.77-42-.77a10.57,10.57,0,0,1-10.47-10.66V64h57.3L251.2,42.67H200.54V21.34h44.29L238.19,0H179.6Z"/><path class="cls-1" d="M0,161.75a13.76,13.76,0,0,0,13.76,13.76H40l-2.91-9.17H13.76a4.59,4.59,0,0,1-4.59-4.59h0v-4.59h25.1L31.36,148H9.17v-9.18h19.4l-2.91-9.18H0Z"/><path class="cls-4" d="M261.25,87.89"/><line class="cls-4" x1="261.25" y1="72.91" x2="261.25" y2="102.87"/><path class="cls-2" d="M268,0h36.55a74.81,74.81,0,0,1,15.13,1.51,37.76,37.76,0,0,1,12.82,5A26.1,26.1,0,0,1,341.37,16q3.3,5.95,3.3,14.83,0,10.09-3.53,16.26a25,25,0,0,1-9.52,9.56,40.31,40.31,0,0,1-13.9,4.59,109.36,109.36,0,0,1-16.51,1.2H287.39V87.73c0,10.42-8.75,19.92-19.35,18.86h0Zm31,46.22q4.15,0,8.6-.3a26.85,26.85,0,0,0,8.22-1.81A14.55,14.55,0,0,0,322,39.59q2.38-3,2.38-8.43a13.1,13.1,0,0,0-2.15-7.9,14.2,14.2,0,0,0-5.53-4.52,23.68,23.68,0,0,0-7.53-2,73.84,73.84,0,0,0-8-.45H287.39v30Z"/></g></g></svg>